<?xml version="1.0" standalone="no"?>
<!DOCTYPE svg PUBLIC "-//W3C//DTD SVG 20010904//EN"
 "http://www.w3.org/TR/2001/REC-SVG-20010904/DTD/svg10.dtd">
<svg version="1.0" xmlns="http://www.w3.org/2000/svg"
 width="700.000000pt" height="700.000000pt" viewBox="0 0 700.000000 700.000000"
 preserveAspectRatio="xMidYMid meet">
<metadata>
Created by potrace 1.14, written by Peter Selinger 2001-2017
</metadata>
<g transform="translate(0.000000,700.000000) scale(0.100000,-0.100000)"
fill="#000000" stroke="none">
<path d="M642 5533 c1 -4 -2 -28 -6 -53 -10 -55 -6 -33 -56 -285 -23 -115 -44
-221 -46 -235 -2 -14 -9 -45 -14 -70 -10 -49 -99 -510 -106 -550 -3 -14 -13
-70 -24 -125 -11 -55 -22 -111 -25 -125 -3 -14 -12 -59 -20 -100 -8 -41 -17
-86 -20 -100 -3 -14 -9 -48 -15 -76 -6 -28 -13 -64 -16 -80 -2 -16 -13 -74
-24 -129 -11 -55 -22 -111 -24 -125 -3 -14 -7 -34 -9 -45 -3 -11 -12 -58 -21
-105 -9 -47 -18 -96 -21 -110 -6 -29 -65 -334 -72 -370 -2 -14 -13 -70 -24
-125 -11 -55 -31 -156 -44 -225 -25 -127 -30 -155 -40 -201 l-6 -25 583 1
c506 2 885 10 939 20 8 2 58 6 110 10 52 4 96 8 99 10 3 2 30 6 60 10 86 9
257 45 345 72 513 157 939 548 1140 1048 20 50 40 99 45 110 16 35 68 246 86
350 21 120 24 442 6 550 -19 112 -21 121 -48 208 -94 299 -280 527 -555 679
-105 59 -345 133 -494 153 -22 3 -51 8 -65 10 -14 3 -61 7 -105 11 -44 3 -96
8 -115 11 -62 9 -1401 15 -1398 6z m1198 -637 c352 -35 586 -199 673 -471 16
-48 20 -68 33 -143 12 -74 6 -325 -11 -413 -15 -75 -51 -200 -75 -258 -142
-345 -439 -583 -830 -665 -123 -25 -144 -27 -403 -33 l-249 -5 5 28 c3 16 17
90 32 164 15 74 29 146 31 160 2 14 7 36 10 50 3 14 8 36 10 50 3 14 23 117
45 230 23 113 43 216 46 230 2 14 24 124 48 246 24 121 47 236 50 255 3 19 10
53 16 77 5 23 12 59 15 80 3 20 7 45 10 54 3 10 7 30 10 45 2 16 16 87 30 158
15 72 27 135 28 140 1 6 4 15 8 20 7 12 349 12 468 1z"/>
<path d="M4356 5498 c-4 -24 -20 -113 -37 -198 -17 -85 -33 -166 -35 -180 -4
-21 -110 -565 -119 -610 -2 -8 -17 -89 -34 -180 -17 -91 -36 -184 -41 -207 -5
-22 -12 -58 -15 -80 -4 -21 -8 -46 -11 -55 -3 -10 -7 -30 -10 -45 -8 -49 -35
-186 -44 -233 -6 -25 -12 -58 -15 -75 -3 -16 -7 -39 -9 -50 -9 -45 -88 -442
-92 -465 -5 -26 -83 -429 -90 -465 -2 -11 -6 -32 -9 -48 -3 -15 -12 -60 -21
-100 -8 -39 -17 -88 -20 -107 -3 -19 -10 -53 -15 -75 -4 -22 -9 -42 -9 -45 0
-3 189 -5 420 -5 415 -1 421 0 425 20 12 54 48 233 51 255 3 14 11 57 19 95 8
39 17 86 20 105 3 19 8 42 10 50 2 8 7 31 10 50 3 19 8 42 10 50 2 8 7 29 9
46 3 17 13 66 21 110 9 43 18 90 21 104 4 22 10 52 29 150 3 14 8 39 11 55 3
17 7 35 8 40 2 6 6 31 11 58 l7 47 177 0 c245 0 332 -23 420 -111 75 -75 131
-196 201 -439 63 -215 203 -675 207 -680 3 -3 191 -5 419 -5 291 0 414 3 414
10 0 6 -9 40 -20 76 -12 35 -25 78 -30 94 -27 95 -64 218 -80 270 -10 33 -32
105 -48 160 -117 387 -148 481 -192 570 -89 183 -170 265 -330 333 -36 15 -40
19 -20 19 46 1 199 42 263 71 96 44 169 94 245 169 174 172 264 403 265 681 0
130 -7 180 -38 280 -69 220 -237 373 -504 461 -57 18 -130 34 -266 58 -22 3
-376 8 -786 10 l-746 4 -7 -43z m1304 -596 c108 -35 176 -108 195 -207 15 -83
3 -211 -28 -295 -59 -162 -181 -253 -392 -296 -57 -12 -505 -14 -505 -3 0 6
12 70 26 142 14 71 28 140 30 151 2 12 8 44 14 71 12 60 14 70 41 210 12 61
22 115 24 120 1 6 8 39 15 73 l13 64 251 -4 c223 -4 258 -7 316 -26z"/>
</g>
</svg>
